<svg id="svg" version="1.1" xmlns="http://www.w3.org/2000/svg" xmlns:xlink="http://www.w3.org/1999/xlink" width="400" height="78.4" viewBox="0, 0, 400,78.4">
<defs>
        <linearGradient id="grad1" x1="0%" y1="0%" x2="100%" y2="0%">
            <stop offset="0%" style="stop-color:#300960;stop-opacity:1" />
            <stop offset="100%" style="stop-color:#1596b0;stop-opacity:1" />
        </linearGradient>
    </defs>
<g id="svgg">
<path id="path0" d="M5.867 14.400 L 5.867 21.867 30.667 21.867 L 55.467 21.867 55.467 14.400 L 55.467 6.933 30.667 6.933 L 5.867 6.933 5.867 14.400 M62.400 39.200 L 62.400 71.467 69.867 71.467 L 77.333 71.467 77.333 39.200 L 77.333 6.933 69.867 6.933 L 62.400 6.933 62.400 39.200 M107.733 14.400 L 107.733 21.867 130.667 21.867 L 153.600 21.867 153.600 14.400 L 153.600 6.933 130.667 6.933 L 107.733 6.933 107.733 14.400 M162.133 14.400 L 162.133 21.867 186.933 21.867 L 211.733 21.867 211.733 14.400 L 211.733 6.933 186.933 6.933 L 162.133 6.933 162.133 14.400 M218.667 39.200 L 218.667 71.467 226.133 71.467 L 233.600 71.467 233.600 39.200 L 233.600 6.933 226.133 6.933 L 218.667 6.933 218.667 39.200 M92.926 14.540 L 85.867 21.614 85.867 34.274 L 85.867 46.933 93.333 46.933 L 100.800 46.933 100.800 27.200 C 100.800 16.347,100.617 7.467,100.393 7.467 C 100.169 7.467,96.809 10.650,92.926 14.540 M242.735 12.760 L 247.733 18.053 264.110 18.093 L 280.487 18.133 280.643 14.272 L 280.800 10.410 283.061 14.222 L 285.322 18.033 297.727 18.226 C 312.740 18.460,315.418 19.529,317.378 26.071 C 319.728 33.917,314.285 39.115,303.851 38.988 C 300.360 38.945,297.585 39.108,297.685 39.350 C 298.519 41.369,316.068 71.095,316.531 71.273 C 316.861 71.400,319.803 71.435,323.068 71.352 L 329.003 71.200 322.635 60.076 C 315.248 47.172,315.857 48.773,317.928 47.702 C 329.468 41.734,332.592 24.603,323.902 14.937 C 316.970 7.227,318.554 7.467,274.505 7.467 L 237.737 7.467 242.735 12.760 M345.281 12.737 L 350.562 18.048 362.614 18.227 C 373.712 18.392,374.836 18.496,376.800 19.546 C 383.991 23.390,384.453 32.818,377.684 37.578 L 375.377 39.200 357.822 39.372 L 340.267 39.544 340.267 55.505 L 340.267 71.467 345.867 71.467 L 351.467 71.467 351.467 60.800 L 351.467 50.133 364.172 50.133 C 374.581 50.133,377.352 49.974,379.505 49.250 C 397.253 43.289,398.538 17.170,381.476 9.175 L 378.400 7.733 359.200 7.580 L 340.000 7.426 345.281 12.737 M5.867 50.133 L 5.867 71.467 13.333 71.467 L 20.800 71.467 20.800 50.133 L 20.800 28.800 13.333 28.800 L 5.867 28.800 5.867 50.133 M34.133 50.118 L 34.133 71.467 41.606 71.467 L 49.079 71.467 48.939 50.267 L 48.800 29.067 41.467 28.918 L 34.133 28.770 34.133 50.118 M138.667 50.133 C 138.667 61.867,138.850 71.467,139.074 71.467 C 139.298 71.467,142.658 68.283,146.541 64.393 L 153.600 57.319 153.600 43.060 L 153.600 28.800 146.133 28.800 L 138.667 28.800 138.667 50.133 M162.133 50.133 L 162.133 71.467 169.600 71.467 L 177.067 71.467 177.067 50.133 L 177.067 28.800 169.600 28.800 L 162.133 28.800 162.133 50.133 M190.400 50.133 L 190.400 71.467 197.867 71.467 L 205.333 71.467 205.333 50.133 L 205.333 28.800 197.867 28.800 L 190.400 28.800 190.400 50.133 M107.733 39.467 L 107.733 46.933 120.000 46.933 L 132.267 46.933 132.267 39.467 L 132.267 32.000 120.000 32.000 L 107.733 32.000 107.733 39.467 M237.333 39.467 L 237.333 44.800 258.933 44.800 L 280.533 44.800 280.533 39.467 L 280.533 34.133 258.933 34.133 L 237.333 34.133 237.333 39.467 M85.867 64.267 L 85.867 71.467 108.800 71.467 L 131.733 71.467 131.733 64.267 L 131.733 57.067 108.800 57.067 L 85.867 57.067 85.867 64.267 M242.533 65.756 C 239.673 68.467,237.333 70.861,237.333 71.076 C 237.333 71.291,247.053 71.467,258.933 71.467 L 280.533 71.467 280.533 66.133 L 280.533 60.800 264.133 60.813 L 247.733 60.826 242.533 65.756 " stroke="none" fill="url(#grad1)" fill-rule="evenodd"></path>
</g>
</svg>