<svg id="svg" version="1.1" xmlns="http://www.w3.org/2000/svg" xmlns:xlink="http://www.w3.org/1999/xlink" width="400" height="381.8181818181818" viewBox="0, 0, 400,381.8181818181818">
    <defs>
        <linearGradient id="grad1" x1="0%" y1="0%" x2="100%" y2="0%">
            <stop offset="0%" style="stop-color:#300960;stop-opacity:1" />
            <stop offset="100%" style="stop-color:#1596b0;stop-opacity:1" />
        </linearGradient>
    </defs>
    <g id="svgg">
    <path id="path0" d="M28.571 70.130 L 28.571 106.494 149.351 106.494 L 270.130 106.494 270.130 70.130 L 270.130 33.766 149.351 33.766 L 28.571 33.766 28.571 70.130 M303.896 190.909 L 303.896 348.052 340.260 348.052 L 376.623 348.052 376.623 190.909 L 376.623 33.766 340.260 33.766 L 303.896 33.766 303.896 190.909 M28.571 244.156 L 28.571 348.052 64.935 348.052 L 101.299 348.052 101.299 244.156 L 101.299 140.260 64.935 140.260 L 28.571 140.260 28.571 244.156 M166.234 244.083 L 166.234 348.052 202.627 348.052 L 239.021 348.052 238.341 244.805 L 237.662 141.558 201.948 140.836 L 166.234 140.113 166.234 244.083 " stroke="none" fill="url(#grad1)" fill-rule="evenodd"></path></g></svg>